<svg xmlns="http://www.w3.org/2000/svg" viewBox="0 0 460 170" role="img" aria-label="AI Experiments">
  <defs>
    <linearGradient id="g3" x1="0%" y1="0%" x2="100%" y2="100%"><stop offset="0%" stop-color="#ffde59"><animate attributeName="stop-color" values="#ffde59;#50fa7b;#ff2079;#ffde59" dur="7.5s" repeatCount="indefinite"/></stop><stop offset="50%" stop-color="#50fa7b"><animate attributeName="stop-color" values="#50fa7b;#ff2079;#ffde59;#50fa7b" dur="7.5s" repeatCount="indefinite"/></stop><stop offset="100%" stop-color="#ff2079"><animate attributeName="stop-color" values="#ff2079;#ffde59;#50fa7b;#ff2079" dur="7.5s" repeatCount="indefinite"/></stop></linearGradient>
    <filter id="f3" x="-20%" y="-20%" width="140%" height="140%">
      <feGaussianBlur stdDeviation="2.5" result="b"/>
      <feMerge><feMergeNode in="b"/><feMergeNode in="SourceGraphic"/></feMerge>
    </filter>
  </defs>
  <!-- 3D depth: dark extruded side + floor shadow behind the card -->
  <ellipse cx="230.0" cy="164" rx="200.0" ry="6" fill="#000000" opacity="0.45"/>
  <rect x="9" y="11" width="447" height="155" rx="14" fill="#04060c"/>
  <rect x="6" y="8" width="447" height="155" rx="14" fill="#080b14" stroke="#1b2233" stroke-width="1"/>
  <rect x="1.5" y="1.5" width="447" height="155" rx="14" fill="#0d1117" stroke="url(#g3)" stroke-width="2.5" filter="url(#f3)"/>
  <path d="M18 4.5 H430" stroke="#ffffff" stroke-width="1" opacity="0.14" stroke-linecap="round"/>
  <circle cx="428" cy="28" r="4" fill="#ffde59">
    <animate attributeName="opacity" values="1;0.15;1" dur="1.8s" repeatCount="indefinite"/>
  </circle>
  <circle cx="412" cy="28" r="3" fill="#50fa7b">
    <animate attributeName="opacity" values="0.2;1;0.2" dur="2.4s" repeatCount="indefinite"/>
  </circle>
  
  <g transform="translate(18,26)">
    <g stroke="#50fa7b" stroke-width="1" opacity="0.55">
      <line x1="6" y1="8" x2="22" y2="3"/><line x1="6" y1="8" x2="22" y2="17"/><line x1="6" y1="8" x2="22" y2="31"/>
      <line x1="6" y1="27" x2="22" y2="3"/><line x1="6" y1="27" x2="22" y2="17"/><line x1="6" y1="27" x2="22" y2="31"/>
      <line x1="22" y1="3" x2="38" y2="17"/><line x1="22" y1="17" x2="38" y2="17"/><line x1="22" y1="31" x2="38" y2="17"/>
    </g>
    <circle cx="6" cy="8" r="3.2" fill="#ffde59"><animate attributeName="opacity" values="1;0.3;1" dur="1.8s" repeatCount="indefinite"/></circle>
    <circle cx="6" cy="27" r="3.2" fill="#ffde59"><animate attributeName="opacity" values="0.3;1;0.3" dur="1.8s" repeatCount="indefinite"/></circle>
    <circle cx="22" cy="3" r="3.2" fill="#50fa7b"><animate attributeName="opacity" values="1;0.3;1" dur="1.8s" begin="0.3s" repeatCount="indefinite"/></circle>
    <circle cx="22" cy="17" r="3.2" fill="#50fa7b"><animate attributeName="opacity" values="0.4;1;0.4" dur="1.8s" begin="0.5s" repeatCount="indefinite"/></circle>
    <circle cx="22" cy="31" r="3.2" fill="#50fa7b"><animate attributeName="opacity" values="1;0.3;1" dur="1.8s" begin="0.7s" repeatCount="indefinite"/></circle>
    <circle cx="38" cy="17" r="3.6" fill="#ff2079"><animate attributeName="opacity" values="0.4;1;0.4" dur="1.8s" begin="0.9s" repeatCount="indefinite"/></circle>
  </g>
  <text x="86" y="52" font-family="Segoe UI,Arial,sans-serif" font-weight="700" font-size="19" fill="#ffffff">AI Experiments</text>
  <rect x="86" y="62" height="2.5" rx="1.25" fill="url(#g3)" width="0">
    <animate attributeName="width" values="0;338;338;0" dur="7.5s" repeatCount="indefinite"/>
  </rect>
  <text x="26" y="104" font-family="Segoe UI,Arial,sans-serif" font-size="13.5" fill="#8b949e">Face recognition • Thai OCR • trading-bot backtest</text>
  <rect x="26" y="124" width="58" height="22" rx="11" fill="#ffde591a" stroke="#ffde59" stroke-width="1"/><text x="55.0" y="139" text-anchor="middle" font-family="Courier New,monospace" font-size="11" fill="#ffde59">Python</text><rect x="92" y="124" width="58" height="22" rx="11" fill="#50fa7b1a" stroke="#50fa7b" stroke-width="1"/><text x="121.0" y="139" text-anchor="middle" font-family="Courier New,monospace" font-size="11" fill="#50fa7b">OpenCV</text><rect x="158" y="124" width="72" height="22" rx="11" fill="#ff20791a" stroke="#ff2079" stroke-width="1"/><text x="194.0" y="139" text-anchor="middle" font-family="Courier New,monospace" font-size="11" fill="#ff2079">Azure AI</text>
</svg>
