<svg xmlns="http://www.w3.org/2000/svg" viewBox="0 0 460 170" role="img" aria-label="Web Automation Pipelines">
  <defs>
    <linearGradient id="g4" x1="0%" y1="0%" x2="100%" y2="100%"><stop offset="0%" stop-color="#50fa7b"><animate attributeName="stop-color" values="#50fa7b;#ff2079;#00f0ff;#50fa7b" dur="8.5s" repeatCount="indefinite"/></stop><stop offset="50%" stop-color="#ff2079"><animate attributeName="stop-color" values="#ff2079;#00f0ff;#50fa7b;#ff2079" dur="8.5s" repeatCount="indefinite"/></stop><stop offset="100%" stop-color="#00f0ff"><animate attributeName="stop-color" values="#00f0ff;#50fa7b;#ff2079;#00f0ff" dur="8.5s" repeatCount="indefinite"/></stop></linearGradient>
    <filter id="f4" x="-20%" y="-20%" width="140%" height="140%">
      <feGaussianBlur stdDeviation="2.5" result="b"/>
      <feMerge><feMergeNode in="b"/><feMergeNode in="SourceGraphic"/></feMerge>
    </filter>
  </defs>
  <!-- 3D depth: dark extruded side + floor shadow behind the card -->
  <ellipse cx="230.0" cy="164" rx="200.0" ry="6" fill="#000000" opacity="0.45"/>
  <rect x="9" y="11" width="447" height="155" rx="14" fill="#04060c"/>
  <rect x="6" y="8" width="447" height="155" rx="14" fill="#080b14" stroke="#1b2233" stroke-width="1"/>
  <rect x="1.5" y="1.5" width="447" height="155" rx="14" fill="#0d1117" stroke="url(#g4)" stroke-width="2.5" filter="url(#f4)"/>
  <path d="M18 4.5 H430" stroke="#ffffff" stroke-width="1" opacity="0.14" stroke-linecap="round"/>
  <circle cx="428" cy="28" r="4" fill="#50fa7b">
    <animate attributeName="opacity" values="1;0.15;1" dur="1.8s" repeatCount="indefinite"/>
  </circle>
  <circle cx="412" cy="28" r="3" fill="#ff2079">
    <animate attributeName="opacity" values="0.2;1;0.2" dur="2.4s" repeatCount="indefinite"/>
  </circle>
  
  <g transform="translate(34,52)">
    <g>
      <animateTransform attributeName="transform" type="rotate" from="0" to="360" dur="8s" repeatCount="indefinite"/>
      <circle r="10" fill="none" stroke="#50fa7b" stroke-width="2.4"/><rect x="-1.6" y="-15" width="3.2" height="6" rx="1" fill="#50fa7b" transform="rotate(0)"/><rect x="-1.6" y="-15" width="3.2" height="6" rx="1" fill="#50fa7b" transform="rotate(60)"/><rect x="-1.6" y="-15" width="3.2" height="6" rx="1" fill="#50fa7b" transform="rotate(120)"/><rect x="-1.6" y="-15" width="3.2" height="6" rx="1" fill="#50fa7b" transform="rotate(180)"/><rect x="-1.6" y="-15" width="3.2" height="6" rx="1" fill="#50fa7b" transform="rotate(240)"/><rect x="-1.6" y="-15" width="3.2" height="6" rx="1" fill="#50fa7b" transform="rotate(300)"/>
      <circle r="3" fill="#50fa7b"/>
    </g>
  </g>
  <g transform="translate(56,34)">
    <g>
      <animateTransform attributeName="transform" type="rotate" from="360" to="0" dur="8s" repeatCount="indefinite"/>
      <circle r="7" fill="none" stroke="#ff2079" stroke-width="2.2"/><rect x="-1.3" y="-11" width="2.6" height="5" rx="1" fill="#ff2079" transform="rotate(30)"/><rect x="-1.3" y="-11" width="2.6" height="5" rx="1" fill="#ff2079" transform="rotate(90)"/><rect x="-1.3" y="-11" width="2.6" height="5" rx="1" fill="#ff2079" transform="rotate(150)"/><rect x="-1.3" y="-11" width="2.6" height="5" rx="1" fill="#ff2079" transform="rotate(210)"/><rect x="-1.3" y="-11" width="2.6" height="5" rx="1" fill="#ff2079" transform="rotate(270)"/><rect x="-1.3" y="-11" width="2.6" height="5" rx="1" fill="#ff2079" transform="rotate(330)"/>
      <circle r="2.4" fill="#ff2079"/>
    </g>
  </g>
  <text x="86" y="52" font-family="Segoe UI,Arial,sans-serif" font-weight="700" font-size="19" fill="#ffffff">Web Automation Pipelines</text>
  <rect x="86" y="62" height="2.5" rx="1.25" fill="url(#g4)" width="0">
    <animate attributeName="width" values="0;338;338;0" dur="8.5s" repeatCount="indefinite"/>
  </rect>
  <text x="26" y="104" font-family="Segoe UI,Arial,sans-serif" font-size="13.5" fill="#8b949e">Scrape → clean → Google Sheets, fully scheduled</text>
  <rect x="26" y="124" width="72" height="22" rx="11" fill="#50fa7b1a" stroke="#50fa7b" stroke-width="1"/><text x="62.0" y="139" text-anchor="middle" font-family="Courier New,monospace" font-size="11" fill="#50fa7b">Selenium</text><rect x="106" y="124" width="58" height="22" rx="11" fill="#ff20791a" stroke="#ff2079" stroke-width="1"/><text x="135.0" y="139" text-anchor="middle" font-family="Courier New,monospace" font-size="11" fill="#ff2079">Python</text><rect x="172" y="124" width="38" height="22" rx="11" fill="#00f0ff1a" stroke="#00f0ff" stroke-width="1"/><text x="191.0" y="139" text-anchor="middle" font-family="Courier New,monospace" font-size="11" fill="#00f0ff">Tor</text>
</svg>
