<svg xmlns="http://www.w3.org/2000/svg" viewBox="0 0 460 170" role="img" aria-label="Smart Cat Feeder">
  <defs>
    <linearGradient id="g7" x1="0%" y1="0%" x2="100%" y2="100%"><stop offset="0%" stop-color="#a742f5"><animate attributeName="stop-color" values="#a742f5;#ffde59;#50fa7b;#a742f5" dur="8.2s" repeatCount="indefinite"/></stop><stop offset="50%" stop-color="#ffde59"><animate attributeName="stop-color" values="#ffde59;#50fa7b;#a742f5;#ffde59" dur="8.2s" repeatCount="indefinite"/></stop><stop offset="100%" stop-color="#50fa7b"><animate attributeName="stop-color" values="#50fa7b;#a742f5;#ffde59;#50fa7b" dur="8.2s" repeatCount="indefinite"/></stop></linearGradient>
    <filter id="f7" x="-20%" y="-20%" width="140%" height="140%">
      <feGaussianBlur stdDeviation="2.5" result="b"/>
      <feMerge><feMergeNode in="b"/><feMergeNode in="SourceGraphic"/></feMerge>
    </filter>
  </defs>
  <rect x="1.5" y="1.5" width="457" height="167" rx="14" fill="#0d1117" stroke="url(#g7)" stroke-width="2.5" filter="url(#f7)"/>
  <circle cx="428" cy="28" r="4" fill="#a742f5">
    <animate attributeName="opacity" values="1;0.15;1" dur="1.8s" repeatCount="indefinite"/>
  </circle>
  <circle cx="412" cy="28" r="3" fill="#ffde59">
    <animate attributeName="opacity" values="0.2;1;0.2" dur="2.4s" repeatCount="indefinite"/>
  </circle>
  
  <g transform="translate(16,26)">
    <circle cx="12" cy="16" r="9" fill="none" stroke="#a742f5" stroke-width="2.2"/>
    <path d="M5 10 L3 2 L11 6 Z M19 10 L21 2 L13 6 Z" fill="#a742f5"/>
    <circle cx="9" cy="15" r="1.4" fill="#a742f5"/><circle cx="15" cy="15" r="1.4" fill="#a742f5"/>
    <path d="M28 30 a9 6 0 0 0 18 0 z" fill="none" stroke="#ffde59" stroke-width="2.2"/>
    <circle cx="37" cy="10" r="2.2" fill="#50fa7b">
      <animate attributeName="cy" values="6;27" dur="1.5s" repeatCount="indefinite"/>
      <animate attributeName="opacity" values="1;1;0" keyTimes="0;0.8;1" dur="1.5s" repeatCount="indefinite"/>
    </circle>
  </g>
  <text x="86" y="52" font-family="Segoe UI,Arial,sans-serif" font-weight="700" font-size="19" fill="#ffffff">Smart Cat Feeder</text>
  <rect x="86" y="62" height="2.5" rx="1.25" fill="url(#g7)" width="0">
    <animate attributeName="width" values="0;338;338;0" dur="8.2s" repeatCount="indefinite"/>
  </rect>
  <text x="26" y="104" font-family="Segoe UI,Arial,sans-serif" font-size="13.5" fill="#8b949e">IoT auto-feeder + web app remote control</text>
  <rect x="26" y="124" width="38" height="22" rx="11" fill="#a742f51a" stroke="#a742f5" stroke-width="1"/><text x="45.0" y="139" text-anchor="middle" font-family="Courier New,monospace" font-size="11" fill="#a742f5">RPi</text><rect x="72" y="124" width="58" height="22" rx="11" fill="#ffde591a" stroke="#ffde59" stroke-width="1"/><text x="101.0" y="139" text-anchor="middle" font-family="Courier New,monospace" font-size="11" fill="#ffde59">Python</text><rect x="138" y="124" width="52" height="22" rx="11" fill="#50fa7b1a" stroke="#50fa7b" stroke-width="1"/><text x="164.0" y="139" text-anchor="middle" font-family="Courier New,monospace" font-size="11" fill="#50fa7b">Flask</text>
</svg>
